<?xml version="1.0" standalone="no"?>
<svg xmlns="http://www.w3.org/2000/svg" viewBox="0 0 173 29" width="173" height="29"><path fill="#EEEEEE" fill-rule="nonzero" d="M14.04 2.74L13.39 4.13Q10.92 2.69 7.92 2.47L7.92 2.47L7.92 17.83L6.14 17.83L6.14 2.47Q3.19 2.66 0.65 4.13L0.65 4.13L0 2.74Q3.12 0.89 7.01 0.89L7.01 0.89Q10.97 0.89 14.04 2.74L14.04 2.74ZM16.13 17.83L16.13 5.21L17.83 5.21L17.83 17.83L16.13 17.83ZM16.99 2.45Q16.46 2.45 16.10 2.09Q15.74 1.73 15.74 1.22L15.74 1.22Q15.74 0.74 16.10 0.38Q16.46 0.02 16.99 0.02L16.99 0.02Q17.52 0.02 17.88 0.37Q18.24 0.72 18.24 1.20L18.24 1.20Q18.24 1.73 17.88 2.09Q17.52 2.45 16.99 2.45L16.99 2.45ZM27.82 17.95Q25.94 17.95 24.47 17.14Q22.99 16.32 22.15 14.84Q21.31 13.37 21.31 11.52L21.31 11.52Q21.31 9.67 22.15 8.21Q22.99 6.74 24.47 5.93Q25.94 5.11 27.82 5.11L27.82 5.11Q29.45 5.11 30.73 5.75Q32.02 6.38 32.76 7.61L32.76 7.61L31.49 8.47Q30.86 7.54 29.90 7.07Q28.94 6.60 27.82 6.60L27.82 6.60Q26.45 6.60 25.36 7.21Q24.26 7.82 23.65 8.95Q23.04 10.08 23.04 11.52L23.04 11.52Q23.04 12.98 23.65 14.10Q24.26 15.22 25.36 15.83Q26.45 16.44 27.82 16.44L27.82 16.44Q28.94 16.44 29.90 15.98Q30.86 15.53 31.49 14.59L31.49 14.59L32.76 15.46Q32.02 16.68 30.72 17.32Q29.42 17.95 27.82 17.95L27.82 17.95ZM41.04 17.95Q39.22 17.95 37.75 17.12Q36.29 16.30 35.45 14.83Q34.61 13.37 34.61 11.52L34.61 11.52Q34.61 9.67 35.45 8.21Q36.29 6.74 37.75 5.93Q39.22 5.11 41.04 5.11L41.04 5.11Q42.86 5.11 44.33 5.93Q45.79 6.74 46.62 8.21Q47.45 9.67 47.45 11.52L47.45 11.52Q47.45 13.37 46.62 14.83Q45.79 16.30 44.33 17.12Q42.86 17.95 41.04 17.95L41.04 17.95ZM41.04 16.44Q42.38 16.44 43.45 15.83Q44.52 15.22 45.12 14.09Q45.72 12.96 45.72 11.52L45.72 11.52Q45.72 10.08 45.12 8.95Q44.52 7.82 43.45 7.21Q42.38 6.60 41.04 6.60L41.04 6.60Q39.70 6.60 38.63 7.21Q37.56 7.82 36.95 8.95Q36.34 10.08 36.34 11.52L36.34 11.52Q36.34 12.96 36.95 14.09Q37.56 15.22 38.63 15.83Q39.70 16.44 41.04 16.44L41.04 16.44ZM69.74 1.03L71.54 1.03L64.10 17.83L62.35 17.83L54.91 1.03L56.83 1.03L63.26 15.62L69.74 1.03ZM73.54 17.83L73.54 5.21L75.24 5.21L75.24 17.83L73.54 17.83ZM74.40 2.45Q73.87 2.45 73.51 2.09Q73.15 1.73 73.15 1.22L73.15 1.22Q73.15 0.74 73.51 0.38Q73.87 0.02 74.40 0.02L74.40 0.02Q74.93 0.02 75.29 0.37Q75.65 0.72 75.65 1.20L75.65 1.20Q75.65 1.73 75.29 2.09Q74.93 2.45 74.40 2.45L74.40 2.45ZM89.81 5.21L91.51 5.21L91.51 17.83L89.88 17.83L89.88 15.34Q89.11 16.61 87.85 17.28Q86.59 17.95 85.01 17.95L85.01 17.95Q83.23 17.95 81.79 17.14Q80.35 16.32 79.54 14.86Q78.72 13.39 78.72 11.52L78.72 11.52Q78.72 9.65 79.54 8.18Q80.35 6.72 81.79 5.92Q83.23 5.11 85.01 5.11L85.01 5.11Q86.54 5.11 87.78 5.75Q89.02 6.38 89.81 7.61L89.81 7.61L89.81 5.21ZM85.15 16.44Q86.47 16.44 87.54 15.83Q88.61 15.22 89.22 14.09Q89.83 12.96 89.83 11.52L89.83 11.52Q89.83 10.08 89.22 8.95Q88.61 7.82 87.54 7.21Q86.47 6.60 85.15 6.60L85.15 6.60Q83.81 6.60 82.74 7.21Q81.67 7.82 81.06 8.95Q80.45 10.08 80.45 11.52L80.45 11.52Q80.45 12.96 81.06 14.09Q81.67 15.22 82.74 15.83Q83.81 16.44 85.15 16.44L85.15 16.44ZM94.39 22.61Q93.60 22.61 92.89 22.40Q92.18 22.20 91.73 21.79L91.73 21.79L92.33 20.50Q93.07 21.14 94.30 21.14L94.30 21.14Q95.30 21.14 95.84 20.54Q96.38 19.94 96.38 18.77L96.38 18.77L96.38 5.21L98.09 5.21L98.09 18.77Q98.09 20.54 97.13 21.58Q96.17 22.61 94.39 22.61L94.39 22.61ZM97.25 2.42Q96.72 2.42 96.36 2.06Q96 1.70 96 1.20L96 1.20Q96 0.72 96.36 0.36Q96.72 0 97.25 0L97.25 0Q97.78 0 98.14 0.35Q98.50 0.70 98.50 1.18L98.50 1.18Q98.50 1.70 98.14 2.06Q97.78 2.42 97.25 2.42L97.25 2.42ZM108.24 16.44Q109.42 16.44 110.41 16.02Q111.41 15.60 112.10 14.78L112.10 14.78L113.06 15.89Q112.22 16.90 110.98 17.42Q109.73 17.95 108.22 17.95L108.22 17.95Q106.27 17.95 104.76 17.12Q103.25 16.30 102.41 14.83Q101.57 13.37 101.57 11.52L101.57 11.52Q101.57 9.67 102.37 8.21Q103.18 6.74 104.59 5.93Q106.01 5.11 107.81 5.11L107.81 5.11Q109.49 5.11 110.84 5.88Q112.20 6.65 113.00 8.02Q113.81 9.38 113.86 11.14L113.86 11.14L103.49 13.15Q103.97 14.69 105.23 15.56Q106.49 16.44 108.24 16.44L108.24 16.44ZM107.81 6.58Q106.49 6.58 105.44 7.19Q104.40 7.80 103.81 8.89Q103.22 9.98 103.22 11.40L103.22 11.40Q103.22 11.76 103.25 11.93L103.25 11.93L112.15 10.20Q111.86 8.62 110.69 7.60Q109.51 6.58 107.81 6.58L107.81 6.58ZM120.72 17.95Q119.18 17.95 117.78 17.51Q116.38 17.06 115.58 16.39L115.58 16.39L116.35 15.05Q117.14 15.67 118.34 16.07Q119.54 16.46 120.84 16.46L120.84 16.46Q122.57 16.46 123.40 15.92Q124.22 15.38 124.22 14.40L124.22 14.40Q124.22 13.70 123.77 13.31Q123.31 12.91 122.62 12.71Q121.92 12.50 120.77 12.31L120.77 12.31Q119.23 12.02 118.30 11.72Q117.36 11.42 116.70 10.70Q116.04 9.98 116.04 8.71L116.04 8.71Q116.04 7.13 117.36 6.12Q118.68 5.11 121.03 5.11L121.03 5.11Q122.26 5.11 123.48 5.44Q124.70 5.76 125.50 6.29L125.50 6.29L124.75 7.66Q123.19 6.58 121.03 6.58L121.03 6.58Q119.40 6.58 118.57 7.15Q117.74 7.73 117.74 8.66L117.74 8.66Q117.74 9.38 118.21 9.82Q118.68 10.25 119.38 10.45Q120.07 10.66 121.30 10.87L121.30 10.87Q122.81 11.16 123.72 11.45Q124.63 11.74 125.28 12.43Q125.93 13.13 125.93 14.35L125.93 14.35Q125.93 16.01 124.55 16.98Q123.17 17.95 120.72 17.95L120.72 17.95Z" transform="translate(0, 3.196)"></path><line x1="134.928" y1="2%" x2="134.928" y2="98%" stroke="#EEEEEE" stroke-linecap="round"></line><g fill="#E8AA42" color="#E8AA42" transform="translate(143.928 0) scale(0.29)"><svg width="100.0" height="100.0" x="0.0" y="0.0" viewBox="0 0 100 100"><g><path d="M36.5,69.8c-2.3,1.3-4.5,2.3-6.2,3l6.3,11.6l0.6-0.8c0.5-0.6,0.6-1.2,0.6-1.5l0,0L36.5,69.8z"></path><path d="M66.7,43.4l-8.9,8.9l19.4,31.4l1.2-1.9c0.6-0.9,0.7-2,0.4-3L66.7,43.4z"></path><path d="M18,62.2c-0.3,0-0.8,0.1-1.5,0.6l0,0l-0.8,0.6l11.5,6.3c0.6-1.7,1.7-3.9,3-6.2L18,62.2z"></path><path d="M56.6,33.3l-35.4-12c-1-0.3-2.1-0.2-3,0.4l-1.9,1.2l31.4,19.4L56.6,33.3z"></path><path d="M84,16c-1.5-1.5-10,2.8-14.9,7.7L39.6,53.2C36.5,56.3,32,64,29.8,68.8l7.3-7.3c0.4-0.4,1-0.4,1.4,0c0.4,0.4,0.4,1,0,1.4   l-7.3,7.3c4.7-2.2,12.4-6.7,15.5-9.7l0.1-0.1l29.5-29.5C81.2,26,85.6,17.5,84,16z"></path></g></svg></g></svg>